<svg width="12" height="22" viewBox="0 0 12 22" fill="none" xmlns="http://www.w3.org/2000/svg">
<path d="M4.616 18.688C3.464 18.608 2.528 18.456 1.808 18.232C1.104 17.992 0.576 17.776 0.224 17.584L1.04 15.304C1.552 15.56 2.168 15.792 2.888 16C3.624 16.208 4.456 16.312 5.384 16.312C6.488 16.312 7.248 16.152 7.664 15.832C8.096 15.496 8.312 15.056 8.312 14.512C8.312 14.144 8.224 13.824 8.048 13.552C7.872 13.28 7.624 13.04 7.304 12.832C6.984 12.624 6.6 12.432 6.152 12.256C5.72 12.08 5.24 11.896 4.712 11.704C4.216 11.528 3.72 11.328 3.224 11.104C2.744 10.88 2.304 10.608 1.904 10.288C1.52 9.952 1.208 9.552 0.968 9.088C0.728 8.624 0.608 8.056 0.608 7.384C0.608 6.28 0.936 5.344 1.592 4.576C2.248 3.792 3.256 3.288 4.616 3.064V0.375999H7.112V2.968C7.88 3.032 8.568 3.144 9.176 3.304C9.784 3.448 10.264 3.592 10.616 3.736L10.016 6.112C9.552 5.936 9 5.768 8.36 5.608C7.736 5.448 7.016 5.368 6.2 5.368C5.336 5.368 4.688 5.528 4.256 5.848C3.824 6.152 3.608 6.576 3.608 7.12C3.608 7.44 3.672 7.712 3.8 7.936C3.928 8.144 4.12 8.336 4.376 8.512C4.632 8.672 4.944 8.832 5.312 8.992C5.68 9.136 6.096 9.288 6.56 9.448C7.216 9.704 7.832 9.976 8.408 10.264C9 10.536 9.512 10.864 9.944 11.248C10.376 11.616 10.712 12.056 10.952 12.568C11.208 13.08 11.336 13.688 11.336 14.392C11.336 15.448 11.008 16.36 10.352 17.128C9.696 17.896 8.616 18.392 7.112 18.616V21.616H4.616V18.688Z" fill="#49AA26"/>
</svg>
