<svg width="160" height="30" viewBox="0 0 160 30" fill="none" xmlns="http://www.w3.org/2000/svg">
<g filter="url(#filter0_d)">
<path d="M12 12.4C12 11.088 11.832 10.144 11.496 9.568C11.176 8.976 10.568 8.68 9.672 8.68C9.352 8.68 9 8.704 8.616 8.752C8.232 8.8 7.944 8.84 7.752 8.872V19H4.848V6.856C5.408 6.696 6.136 6.544 7.032 6.4C7.944 6.256 8.904 6.184 9.912 6.184C10.776 6.184 11.48 6.296 12.024 6.52C12.584 6.744 13.048 7.04 13.416 7.408C13.592 7.28 13.816 7.144 14.088 7C14.36 6.856 14.664 6.728 15 6.616C15.336 6.488 15.688 6.384 16.056 6.304C16.44 6.224 16.824 6.184 17.208 6.184C18.184 6.184 18.984 6.328 19.608 6.616C20.248 6.888 20.744 7.28 21.096 7.792C21.464 8.288 21.712 8.896 21.84 9.616C21.984 10.32 22.056 11.096 22.056 11.944V19H19.152V12.4C19.152 11.088 18.992 10.144 18.672 9.568C18.352 8.976 17.736 8.68 16.824 8.68C16.36 8.68 15.92 8.76 15.504 8.92C15.088 9.064 14.776 9.208 14.568 9.352C14.696 9.752 14.784 10.176 14.832 10.624C14.88 11.072 14.904 11.552 14.904 12.064V19H12V12.4ZM28.5416 19H25.6376V6.448H28.5416V19ZM28.8536 2.776C28.8536 3.32 28.6776 3.752 28.3256 4.072C27.9736 4.392 27.5576 4.552 27.0776 4.552C26.5816 4.552 26.1576 4.392 25.8056 4.072C25.4536 3.752 25.2776 3.32 25.2776 2.776C25.2776 2.216 25.4536 1.776 25.8056 1.456C26.1576 1.136 26.5816 0.975999 27.0776 0.975999C27.5576 0.975999 27.9736 1.136 28.3256 1.456C28.6776 1.776 28.8536 2.216 28.8536 2.776ZM32.2464 6.856C32.8064 6.696 33.5344 6.544 34.4304 6.4C35.3264 6.256 36.3184 6.184 37.4064 6.184C38.4304 6.184 39.2864 6.328 39.9744 6.616C40.6624 6.888 41.2064 7.28 41.6064 7.792C42.0224 8.288 42.3104 8.896 42.4704 9.616C42.6464 10.32 42.7344 11.096 42.7344 11.944V19H39.8304V12.4C39.8304 11.728 39.7824 11.16 39.6864 10.696C39.6064 10.216 39.4624 9.832 39.2544 9.544C39.0624 9.24 38.7904 9.024 38.4384 8.896C38.1024 8.752 37.6864 8.68 37.1904 8.68C36.8224 8.68 36.4384 8.704 36.0384 8.752C35.6384 8.8 35.3424 8.84 35.1504 8.872V19H32.2464V6.856ZM46.2855 19V0.855999L49.1895 0.375999V6.592C49.5095 6.48 49.8775 6.384 50.2935 6.304C50.7255 6.224 51.1495 6.184 51.5655 6.184C52.5735 6.184 53.4055 6.328 54.0615 6.616C54.7335 6.888 55.2695 7.28 55.6695 7.792C56.0695 8.288 56.3495 8.888 56.5095 9.592C56.6855 10.296 56.7735 11.08 56.7735 11.944V19H53.8695V12.4C53.8695 11.728 53.8215 11.16 53.7255 10.696C53.6455 10.216 53.5015 9.832 53.2935 9.544C53.1015 9.24 52.8375 9.024 52.5015 8.896C52.1655 8.752 51.7495 8.68 51.2535 8.68C50.8695 8.68 50.4775 8.72 50.0775 8.8C49.6775 8.88 49.3815 8.952 49.1895 9.016V19H46.2855ZM64.6703 16.96C65.5663 16.96 66.2463 16.912 66.7103 16.816V13.6C66.5503 13.552 66.3183 13.504 66.0143 13.456C65.7103 13.408 65.3743 13.384 65.0063 13.384C64.6863 13.384 64.3583 13.408 64.0223 13.456C63.7023 13.504 63.4063 13.592 63.1343 13.72C62.8783 13.848 62.6703 14.032 62.5103 14.272C62.3503 14.496 62.2703 14.784 62.2703 15.136C62.2703 15.824 62.4863 16.304 62.9183 16.576C63.3503 16.832 63.9343 16.96 64.6703 16.96ZM64.4303 6.136C65.3903 6.136 66.1983 6.256 66.8543 6.496C67.5103 6.736 68.0303 7.072 68.4143 7.504C68.8143 7.936 69.0943 8.464 69.2543 9.088C69.4303 9.696 69.5183 10.368 69.5183 11.104V18.712C69.0703 18.808 68.3903 18.92 67.4783 19.048C66.5823 19.192 65.5663 19.264 64.4303 19.264C63.6783 19.264 62.9903 19.192 62.3663 19.048C61.7423 18.904 61.2063 18.672 60.7583 18.352C60.3263 18.032 59.9823 17.616 59.7263 17.104C59.4863 16.592 59.3663 15.96 59.3663 15.208C59.3663 14.488 59.5023 13.88 59.7743 13.384C60.0623 12.888 60.4463 12.488 60.9263 12.184C61.4063 11.864 61.9583 11.64 62.5823 11.512C63.2223 11.368 63.8863 11.296 64.5742 11.296C64.8943 11.296 65.2303 11.32 65.5823 11.368C65.9343 11.4 66.3103 11.464 66.7103 11.56V11.08C66.7103 10.744 66.6703 10.424 66.5903 10.12C66.5103 9.816 66.3663 9.552 66.1583 9.328C65.9663 9.088 65.7023 8.904 65.3663 8.776C65.0463 8.648 64.6383 8.584 64.1423 8.584C63.4703 8.584 62.8543 8.632 62.2943 8.728C61.7343 8.824 61.2783 8.936 60.9263 9.064L60.5663 6.712C60.9343 6.584 61.4703 6.456 62.1743 6.328C62.8783 6.2 63.6303 6.136 64.4303 6.136ZM83.7458 12.736C83.7458 11.808 83.8898 10.944 84.1777 10.144C84.4658 9.328 84.8738 8.624 85.4018 8.032C85.9458 7.44 86.6018 6.976 87.3698 6.64C88.1378 6.304 89.0018 6.136 89.9618 6.136C91.1458 6.136 92.2658 6.352 93.3218 6.784L92.6978 9.16C92.3618 9.016 91.9778 8.896 91.5458 8.8C91.1298 8.704 90.6818 8.656 90.2018 8.656C89.0658 8.656 88.2018 9.016 87.6098 9.736C87.0178 10.44 86.7218 11.44 86.7218 12.736C86.7218 13.984 87.0018 14.976 87.5618 15.712C88.1218 16.432 89.0658 16.792 90.3938 16.792C90.8898 16.792 91.3778 16.744 91.8578 16.648C92.3378 16.552 92.7538 16.432 93.1058 16.288L93.5138 18.688C93.1938 18.848 92.7058 18.992 92.0498 19.12C91.4098 19.248 90.7458 19.312 90.0578 19.312C88.9858 19.312 88.0498 19.152 87.2498 18.832C86.4658 18.496 85.8098 18.04 85.2818 17.464C84.7698 16.872 84.3858 16.176 84.1298 15.376C83.8738 14.56 83.7458 13.68 83.7458 12.736ZM106.856 12.712C106.856 13.704 106.712 14.608 106.424 15.424C106.136 16.24 105.728 16.936 105.2 17.512C104.672 18.088 104.032 18.536 103.28 18.856C102.544 19.176 101.728 19.336 100.832 19.336C99.9363 19.336 99.1203 19.176 98.3843 18.856C97.6483 18.536 97.0163 18.088 96.4883 17.512C95.9603 16.936 95.5443 16.24 95.2402 15.424C94.9523 14.608 94.8083 13.704 94.8083 12.712C94.8083 11.72 94.9523 10.824 95.2402 10.024C95.5443 9.208 95.9603 8.512 96.4883 7.936C97.0323 7.36 97.6723 6.92 98.4083 6.616C99.1443 6.296 99.9523 6.136 100.832 6.136C101.712 6.136 102.52 6.296 103.256 6.616C104.008 6.92 104.648 7.36 105.176 7.936C105.704 8.512 106.112 9.208 106.4 10.024C106.704 10.824 106.856 11.72 106.856 12.712ZM103.88 12.712C103.88 11.464 103.608 10.48 103.064 9.76C102.536 9.024 101.792 8.656 100.832 8.656C99.8723 8.656 99.1203 9.024 98.5763 9.76C98.0483 10.48 97.7843 11.464 97.7843 12.712C97.7843 13.976 98.0483 14.976 98.5763 15.712C99.1203 16.448 99.8723 16.816 100.832 16.816C101.792 16.816 102.536 16.448 103.064 15.712C103.608 14.976 103.88 13.976 103.88 12.712ZM109.848 6.856C110.408 6.696 111.136 6.544 112.032 6.4C112.928 6.256 113.92 6.184 115.008 6.184C116.032 6.184 116.888 6.328 117.576 6.616C118.264 6.888 118.808 7.28 119.208 7.792C119.624 8.288 119.912 8.896 120.072 9.616C120.248 10.32 120.336 11.096 120.336 11.944V19H117.432V12.4C117.432 11.728 117.384 11.16 117.288 10.696C117.208 10.216 117.064 9.832 116.856 9.544C116.664 9.24 116.392 9.024 116.04 8.896C115.704 8.752 115.288 8.68 114.792 8.68C114.424 8.68 114.04 8.704 113.64 8.752C113.24 8.8 112.944 8.84 112.752 8.872V19H109.848V6.856ZM123.743 3.136L126.647 2.656V6.448H131.111V8.872H126.647V13.984C126.647 14.992 126.807 15.712 127.127 16.144C127.447 16.576 127.991 16.792 128.759 16.792C129.287 16.792 129.751 16.736 130.151 16.624C130.567 16.512 130.895 16.408 131.135 16.312L131.615 18.616C131.279 18.76 130.839 18.904 130.295 19.048C129.751 19.208 129.111 19.288 128.375 19.288C127.479 19.288 126.727 19.168 126.119 18.928C125.527 18.688 125.055 18.344 124.703 17.896C124.351 17.432 124.103 16.88 123.959 16.24C123.815 15.584 123.743 14.84 123.743 14.008V3.136ZM138.334 16.96C139.23 16.96 139.91 16.912 140.374 16.816V13.6C140.214 13.552 139.982 13.504 139.678 13.456C139.374 13.408 139.038 13.384 138.67 13.384C138.35 13.384 138.022 13.408 137.686 13.456C137.366 13.504 137.07 13.592 136.798 13.72C136.542 13.848 136.334 14.032 136.174 14.272C136.014 14.496 135.934 14.784 135.934 15.136C135.934 15.824 136.15 16.304 136.582 16.576C137.014 16.832 137.598 16.96 138.334 16.96ZM138.094 6.136C139.054 6.136 139.862 6.256 140.518 6.496C141.174 6.736 141.694 7.072 142.078 7.504C142.478 7.936 142.758 8.464 142.918 9.088C143.094 9.696 143.182 10.368 143.182 11.104V18.712C142.734 18.808 142.054 18.92 141.142 19.048C140.246 19.192 139.23 19.264 138.094 19.264C137.342 19.264 136.654 19.192 136.03 19.048C135.406 18.904 134.87 18.672 134.422 18.352C133.99 18.032 133.646 17.616 133.39 17.104C133.15 16.592 133.03 15.96 133.03 15.208C133.03 14.488 133.166 13.88 133.438 13.384C133.726 12.888 134.11 12.488 134.59 12.184C135.07 11.864 135.622 11.64 136.246 11.512C136.886 11.368 137.55 11.296 138.238 11.296C138.558 11.296 138.894 11.32 139.246 11.368C139.598 11.4 139.974 11.464 140.374 11.56V11.08C140.374 10.744 140.334 10.424 140.254 10.12C140.174 9.816 140.03 9.552 139.822 9.328C139.63 9.088 139.366 8.904 139.03 8.776C138.71 8.648 138.302 8.584 137.806 8.584C137.134 8.584 136.518 8.632 135.958 8.728C135.398 8.824 134.942 8.936 134.59 9.064L134.23 6.712C134.598 6.584 135.134 6.456 135.838 6.328C136.542 6.2 137.294 6.136 138.094 6.136Z" fill="white"/>
<path d="M75.9066 18.74C74.9466 18.6733 74.1666 18.5467 73.5666 18.36C72.9799 18.16 72.5399 17.98 72.2466 17.82L72.9266 15.92C73.3532 16.1333 73.8666 16.3267 74.4666 16.5C75.0799 16.6733 75.7732 16.76 76.5466 16.76C77.4666 16.76 78.0999 16.6267 78.4466 16.36C78.8066 16.08 78.9866 15.7133 78.9866 15.26C78.9866 14.9533 78.9132 14.6867 78.7666 14.46C78.6199 14.2333 78.4132 14.0333 78.1466 13.86C77.8799 13.6867 77.5599 13.5267 77.1866 13.38C76.8266 13.2333 76.4266 13.08 75.9866 12.92C75.5732 12.7733 75.1599 12.6067 74.7466 12.42C74.3466 12.2333 73.9799 12.0067 73.6466 11.74C73.3266 11.46 73.0666 11.1267 72.8666 10.74C72.6666 10.3533 72.5666 9.88 72.5666 9.32C72.5666 8.4 72.8399 7.62 73.3866 6.98C73.9332 6.32667 74.7732 5.90667 75.9066 5.72V3.48H77.9866V5.64C78.6266 5.69333 79.1999 5.78667 79.7066 5.92C80.2132 6.04 80.6132 6.16 80.9066 6.28L80.4066 8.26C80.0199 8.11333 79.5599 7.97333 79.0266 7.84C78.5066 7.70667 77.9066 7.64 77.2266 7.64C76.5066 7.64 75.9666 7.77333 75.6066 8.04C75.2466 8.29333 75.0666 8.64667 75.0666 9.1C75.0666 9.36667 75.1199 9.59333 75.2266 9.78C75.3332 9.95333 75.4932 10.1133 75.7066 10.26C75.9199 10.3933 76.1799 10.5267 76.4866 10.66C76.7932 10.78 77.1399 10.9067 77.5266 11.04C78.0732 11.2533 78.5866 11.48 79.0666 11.72C79.5599 11.9467 79.9866 12.22 80.3466 12.54C80.7066 12.8467 80.9866 13.2133 81.1866 13.64C81.3999 14.0667 81.5066 14.5733 81.5066 15.16C81.5066 16.04 81.2332 16.8 80.6866 17.44C80.1399 18.08 79.2399 18.4933 77.9866 18.68V21.18H75.9066V18.74ZM149.571 18.74C148.611 18.6733 147.831 18.5467 147.231 18.36C146.644 18.16 146.204 17.98 145.911 17.82L146.591 15.92C147.017 16.1333 147.531 16.3267 148.131 16.5C148.744 16.6733 149.437 16.76 150.211 16.76C151.131 16.76 151.764 16.6267 152.111 16.36C152.471 16.08 152.651 15.7133 152.651 15.26C152.651 14.9533 152.577 14.6867 152.431 14.46C152.284 14.2333 152.077 14.0333 151.811 13.86C151.544 13.6867 151.224 13.5267 150.851 13.38C150.491 13.2333 150.091 13.08 149.651 12.92C149.237 12.7733 148.824 12.6067 148.411 12.42C148.011 12.2333 147.644 12.0067 147.311 11.74C146.991 11.46 146.731 11.1267 146.531 10.74C146.331 10.3533 146.231 9.88 146.231 9.32C146.231 8.4 146.504 7.62 147.051 6.98C147.597 6.32667 148.437 5.90667 149.571 5.72V3.48H151.651V5.64C152.291 5.69333 152.864 5.78667 153.371 5.92C153.877 6.04 154.277 6.16 154.571 6.28L154.071 8.26C153.684 8.11333 153.224 7.97333 152.691 7.84C152.171 7.70667 151.571 7.64 150.891 7.64C150.171 7.64 149.631 7.77333 149.271 8.04C148.911 8.29333 148.731 8.64667 148.731 9.1C148.731 9.36667 148.784 9.59333 148.891 9.78C148.997 9.95333 149.157 10.1133 149.371 10.26C149.584 10.3933 149.844 10.5267 150.151 10.66C150.457 10.78 150.804 10.9067 151.191 11.04C151.737 11.2533 152.251 11.48 152.731 11.72C153.224 11.9467 153.651 12.22 154.011 12.54C154.371 12.8467 154.651 13.2133 154.851 13.64C155.064 14.0667 155.171 14.5733 155.171 15.16C155.171 16.04 154.897 16.8 154.351 17.44C153.804 18.08 152.904 18.4933 151.651 18.68V21.18H149.571V18.74Z" fill="#49AA26"/>
</g>
<defs>
<filter id="filter0_d" x="0.848" y="0.376007" width="158.323" height="28.804" filterUnits="userSpaceOnUse" color-interpolation-filters="sRGB">
<feFlood flood-opacity="0" result="BackgroundImageFix"/>
<feColorMatrix in="SourceAlpha" type="matrix" values="0 0 0 0 0 0 0 0 0 0 0 0 0 0 0 0 0 0 127 0" result="hardAlpha"/>
<feOffset dy="4"/>
<feGaussianBlur stdDeviation="2"/>
<feComposite in2="hardAlpha" operator="out"/>
<feColorMatrix type="matrix" values="0 0 0 0 0 0 0 0 0 0 0 0 0 0 0 0 0 0 0.25 0"/>
<feBlend mode="normal" in2="BackgroundImageFix" result="effect1_dropShadow"/>
<feBlend mode="normal" in="SourceGraphic" in2="effect1_dropShadow" result="shape"/>
</filter>
</defs>
</svg>
