<svg width="14" height="21" viewBox="0 0 14 21" fill="none" xmlns="http://www.w3.org/2000/svg">
<path d="M13.139 13.7249C13.139 14.5056 12.913 15.2395 12.461 15.9265C12.026 16.6135 11.375 17.1913 10.506 17.6597C9.655 18.1281 8.642 18.4092 7.466 18.5029V20.4H5.701V18.5029C4 18.3623 2.625 17.9017 1.575 17.121C0.524997 16.3403 0 15.3098 0 14.0294H3.312C3.367 14.6383 3.593 15.1458 3.991 15.5518C4.389 15.9421 4.959 16.192 5.701 16.3013V11.1486C4.489 10.8831 3.502 10.6177 2.742 10.3522C1.982 10.0712 1.33099 9.634 0.787994 9.0406C0.262994 8.4473 0 7.6354 0 6.6048C0 5.30884 0.524997 4.23926 1.575 3.39609C2.625 2.53731 4 2.03766 5.701 1.89713V0H7.466V1.89713C9.058 2.02204 10.334 2.45924 11.293 3.20872C12.271 3.94259 12.823 4.95752 12.949 6.2535H9.63699C9.58299 5.76946 9.36599 5.34007 8.98599 4.96533C8.60599 4.57497 8.099 4.30953 7.466 4.169V9.228C8.678 9.4778 9.664 9.7433 10.425 10.0243C11.185 10.2898 11.827 10.7192 12.352 11.3125C12.877 11.8902 13.139 12.6944 13.139 13.7249ZM3.149 6.4643C3.149 7.1045 3.36699 7.6041 3.80099 7.9633C4.25299 8.3224 4.887 8.6112 5.701 8.8298V4.09873C4.923 4.17681 4.299 4.41883 3.828 4.8248C3.376 5.23077 3.149 5.77727 3.149 6.4643ZM7.466 16.3013C8.262 16.192 8.886 15.9187 9.339 15.4815C9.791 15.0287 10.017 14.49 10.017 13.8654C10.017 13.2409 9.791 12.7568 9.339 12.4133C8.904 12.0542 8.28 11.7653 7.466 11.5467V16.3013Z" fill="#49AA26"/>
</svg>
